<svg aria-hidden="true" style="position: absolute; width: 0; height: 0; overflow: hidden;" version="1.1" xmlns="http://www.w3.org/2000/svg" xmlns:xlink="http://www.w3.org/1999/xlink">
<defs>
<symbol id="icon-play-button" viewBox="0 0 64 64">
<title>play-button</title>
<path d="M59.707 16.003c-8.835-15.303-28.403-20.546-43.705-11.709-15.303 8.834-20.546 28.401-11.71 43.703 8.834 15.303 28.401 20.547 43.703 11.711 15.303-8.837 20.549-28.403 11.711-43.705zM44.797 54.164c-12.24 7.069-27.896 2.874-34.963-9.368-7.069-12.24-2.873-27.896 9.368-34.962 12.241-7.069 27.896-2.874 34.964 9.368s2.873 27.894-9.368 34.962zM43.518 30.7l-16.753-9.771c-1.527-0.891-2.758-0.179-2.75 1.587l0.086 19.394c0.008 1.766 1.254 2.484 2.785 1.6l16.625-9.599c1.53-0.883 1.533-2.321 0.007-3.212z"></path>
</symbol>
<symbol id="icon-facebook" viewBox="0 0 64 64">
<title>facebook</title>
<path d="M31.983 0c-17.661 0-31.983 14.323-31.983 31.983 0 17.667 14.322 31.983 31.983 31.983 17.668 0 31.983-14.316 31.983-31.983 0.001-17.66-14.315-31.983-31.983-31.983zM40.801 19.567h-4.646c-0.768 0-1.835 0.384-1.835 2.005v4.32h6.462l-0.755 7.347h-5.707v20.907h-8.648v-20.906h-4.113v-7.354h4.113v-4.751c0-3.403 1.614-8.726 8.72-8.726l6.41 0.026v7.132z"></path>
</symbol>
<symbol id="icon-gplus" viewBox="0 0 64 64">
<title>gplus</title>
<path d="M31.947 0c-17.637 0-31.947 14.303-31.947 31.94 0 17.644 14.31 31.94 31.947 31.94 17.638 0 31.947-14.297 31.947-31.94 0-17.637-14.31-31.94-31.947-31.94zM34.195 42.039c-3.262 4.198-9.293 5.433-14.193 3.782-5.042-1.657-8.76-6.629-8.877-11.938 0-0.169 0-0.338 0-0.514 0-0.104-0.013-0.208-0.013-0.318-0.065-6.668 5.81-12.75 12.503-12.828 3.458-0.299 6.837 1.053 9.449 3.243v0 0c-1.066 1.183-2.158 2.352-3.328 3.451-2.313-1.404-5.095-2.476-7.785-1.527-4.354 1.241-6.992 6.375-5.381 10.638 0.377 1.248 1.065 2.34 1.976 3.224 2.301 2.248 5.953 3.132 9.007 1.793 2.184-0.786 3.64-2.814 4.276-4.991-2.522-0.045-5.030-0.013-7.551-0.084v0 0c0-1.495-0.013-2.99 0-4.484 4.185-0.006 8.383-0.020 12.594 0.020v0 0c0.248 3.664-0.286 7.589-2.677 10.533zM52.573 31.499c0 1.248 0 2.495 0 3.743 0 0.006 0 0.006 0 0.006-1.261 0.007-2.508 0.013-3.77 0.013 0 0.013 0 0.026 0 0.032 0 1.241-0.013 2.469-0.025 3.711 0 0.006 0 0.020 0 0.026-1.248-0.006-2.495 0-3.743 0-0.013-1.26-0.013-2.509-0.026-3.763-1.248-0.013-2.509-0.013-3.757-0.026v0c0-1.248 0-2.496 0-3.743v0c1.248-0.007 2.496-0.013 3.757-0.026 0.013-1.254 0.026-2.509 0.039-3.763 1.235 0 2.483 0 3.73 0 0.013 1.254 0.025 2.509 0.025 3.763 1.262 0.013 2.51 0.020 3.77 0.027v0z"></path>
</symbol>
<symbol id="icon-twitter" viewBox="0 0 64 64">
<title>twitter</title>
<path d="M31.976 0c-17.659 0-31.976 14.317-31.976 31.97 0 17.66 14.317 31.97 31.976 31.97 17.654 0 31.97-14.31 31.97-31.97 0.001-17.653-14.316-31.97-31.97-31.97zM47.744 26.929c0.013 0.332 0.020 0.658 0.020 0.989 0 10.101-7.682 21.745-21.745 21.745-4.312 0-8.332-1.262-11.708-3.435 0.598 0.072 1.203 0.111 1.822 0.111 3.583 0 6.875-1.224 9.489-3.272-3.343-0.065-6.166-2.27-7.135-5.308 0.461 0.091 0.943 0.137 1.437 0.137 0.696 0 1.373-0.092 2.010-0.267-3.493-0.703-6.128-3.792-6.128-7.493 0-0.033 0-0.066 0-0.098 1.028 0.573 2.205 0.917 3.461 0.956-2.049-1.372-3.402-3.708-3.402-6.361 0-1.399 0.377-2.712 1.033-3.844 3.773 4.625 9.406 7.668 15.754 7.987-0.13-0.559-0.202-1.145-0.202-1.744 0-4.214 3.428-7.643 7.644-7.643 2.205 0 4.189 0.931 5.58 2.414 1.744-0.338 3.376-0.976 4.854-1.854-0.573 1.789-1.784 3.284-3.356 4.228 1.541-0.182 3.018-0.592 4.384-1.203-1.021 1.535-2.316 2.882-3.812 3.955z"></path>
</symbol>
<symbol id="icon-angle-arrow-down" viewBox="0 0 64 64">
<title>angle-arrow-down</title>
<path d="M63.361 17.186l-3.206-3.206c-0.427-0.428-0.919-0.642-1.476-0.642-0.555 0-1.047 0.213-1.474 0.642l-25.204 25.203-25.203-25.202c-0.427-0.428-0.919-0.642-1.475-0.642s-1.048 0.213-1.475 0.642l-3.206 3.206c-0.428 0.427-0.641 0.919-0.641 1.475s0.214 1.047 0.641 1.475l29.884 29.884c0.427 0.427 0.919 0.641 1.475 0.641s1.047-0.214 1.474-0.641l29.886-29.884c0.427-0.427 0.639-0.919 0.639-1.475s-0.212-1.048-0.639-1.476z"></path>
</symbol>
<symbol id="icon-search" viewBox="0 0 64 64">
<title>search</title>
<path d="M63.216 59.456l-15.386-15.386c3.814-4.65 6.112-10.605 6.112-17.098 0-14.893-12.080-26.973-26.97-26.973-14.902 0-26.973 12.080-26.973 26.973 0 14.89 12.067 26.97 26.973 26.97 6.49 0 12.435-2.285 17.085-6.099l15.386 15.373c1.043 1.043 2.73 1.043 3.773 0 1.046-1.030 1.046-2.73 0-3.76zM26.973 48.576c-11.926 0-21.616-9.693-21.616-21.603 0-11.914 9.693-21.616 21.616-21.616 11.91 0 21.616 9.706 21.616 21.616s-9.706 21.603-21.616 21.603z"></path>
</symbol>
<symbol id="icon-lion-form" viewBox="0 0 51 64">
<title>lion-form</title>
<path d="M28.449 2.173c-0.168-0.127-0.354-0.183-0.482-0.205-0.272-0.054-0.553-0.012-0.827 0.061 0.325 0.158 0.678 0.343 0.678 0.723 0.002 0.404-0.13 0.721-0.261 1.027-0.079 0.191-0.158 0.399-0.191 0.619 0.152 0.022 0.278 0.044 0.397 0.077 0.142 0.040 0.36 0.105 0.518 0.154 0.176-0.279 0.544-0.943 0.542-1.611 0-0.139-0.018-0.267-0.052-0.381-0.059-0.19-0.166-0.346-0.322-0.464z"></path>
<path d="M23.989 2.354c-0.042 0.036-0.080 0.065-0.124 0.090-0.079 0.044-0.159 0.082-0.238 0.121-0.232 0.111-0.348 0.189-0.348 0.294 0 0.253 0.112 0.497 0.23 0.756 0.1 0.219 0.206 0.476 0.253 0.768 0.119-0.001 0.238-0.001 0.358-0.001 0.136 0 0.272 0 0.408 0.002 0.169 0.001 0.331 0.003 0.489 0.003h0.011l-0.003-1.838c-0.16-0.036-0.461-0.095-1.036-0.194z"></path>
<path d="M24.527 4.921c-0.192-0.002-0.382-0.004-0.573-0.004-0.62 0-1.319 0.019-1.808 0.159 0.004 0.183 0.011 0.455 0.014 0.678 0.071-0.005 0.154-0.011 0.242-0.017l0.48-0.030c0.641-0.040 1.838-0.105 2.666-0.107h0.096c0.527 0 0.923 0.007 1.284 0.024 0.369 0.018 0.693 0.043 1.097 0.080l0.027 0.003c0.034-0.014 0.067-0.027 0.102-0.038l-0.021-0.523c-0.157-0.048-0.38-0.116-0.511-0.151-0.263-0.071-0.552-0.103-0.967-0.103-0.203 0-0.418 0.007-0.651 0.016l-0.091 0.003c-0.404 0.012-0.882 0.018-1.385 0.012z"></path>
<path d="M23.192 2.058c-0.042-0.009-0.088-0.020-0.139-0.028-0.113-0.021-0.222-0.031-0.315-0.031-0.369 0.001-0.691 0.144-0.883 0.391-0.042 0.056-0.078 0.115-0.105 0.176-0.028 0.064-0.049 0.135-0.063 0.209-0.011 0.063-0.017 0.129-0.017 0.2 0.001 0.693 0.212 1.283 0.342 1.579 0.305-0.086 0.682-0.135 1.203-0.158-0.043-0.203-0.123-0.393-0.196-0.554-0.138-0.3-0.28-0.61-0.281-0.982-0.001-0.445 0.352-0.635 0.606-0.758-0.005-0.002-0.010-0.003-0.015-0.005-0.049-0.015-0.095-0.029-0.139-0.040z"></path>
<path d="M26.466 2.247l-0.006 0.002c-0.268 0.1-0.563 0.203-0.896 0.291l0.003 1.837c0.146-0.003 0.291-0.005 0.42-0.009 0.305-0.011 0.581-0.020 0.842-0.013 0.040-0.297 0.135-0.553 0.232-0.786 0.113-0.27 0.22-0.526 0.22-0.817-0.019-0.066-0.295-0.198-0.412-0.256-0.179-0.085-0.307-0.164-0.404-0.248z"></path>
<path d="M36.14 22.37c-0.112-0.009-0.222-0.017-0.319-0.027-0.101-0.012-0.198-0.027-0.287-0.045l-0.075-0.017c-0.465-0.108-0.8-0.305-1.089-0.633-0.251-0.283-0.464-0.667-0.74-1.324l-0.010-0.024c-0.404-0.942-1.446-2.016-2.433-2.507-0.181-0.090-0.352-0.154-0.507-0.193-0.15-0.038-0.28-0.050-0.391-0.034l-0.083 0.011c-0.032 0.017-0.063 0.034-0.102 0.049-0.236 0.092-0.505 0.149-0.831 0.174 0.565 0.565 1.252 1.535 1.023 2.766 1.178 0.91 1.876 1.965 1.923 2.91 0.063 0.094 0.137 0.178 0.212 0.267l0.065 0.078c0.907 0.262 1.609 0.384 2.212 0.384v0.126l0.006-0.126c0.693-0.001 1.236-0.169 1.663-0.516 0.553-0.449 0.785-0.98 0.88-1.333-0.318 0.029-0.739 0.036-1.116 0.014z"></path>
<path d="M15.964 22.278l-0.004 0.028-0.203-0.034c-0.181 0.011-0.534 0.183-0.907 0.362-0.6 0.29-1.342 0.651-2.055 0.653-0.178 0-0.356-0.014-0.49-0.027 0.005 0.346 0.152 0.967 1.039 1.412 0.108-0.013 0.356-0.043 0.899-0.127v-0.001l0.303-0.045c0.581-0.084 1.375-0.199 3.207-0.856 0.137-0.049 0.261-0.097 0.37-0.14-0.465-0.055-0.695-0.215-0.992-0.422l-0.187-0.129c-0.258-0.17-0.55-0.384-0.783-0.688-0.063 0.009-0.128 0.014-0.197 0.014z"></path>
<path d="M6.938 24.965c0.121 0.379 0.369 0.837 0.881 1.124 0.131 0.072 0.276 0.133 0.433 0.179 0.169 0.047 0.355 0.079 0.554 0.094 0.602 0.036 1.277-0.099 2.113-0.457 0.612-0.263 1.267-0.626 1.845-0.964-0.777-0.521-0.958-1.174-0.991-1.566-0.414 0.18-0.815 0.388-1.128 0.557-0.379 0.203-0.737 0.396-1.017 0.488l-0.166 0.055v-0.005c-0.965 0.297-1.994 0.437-2.524 0.495z"></path>
<path d="M32.642 10.079c0.529 0.36 0.865 0.637 1.118 0.926 0.276 0.311 0.478 0.655 0.654 1.118 0.074 0.203 0.123 0.394 0.166 0.577 0.022 0.001 0.045 0.001 0.066 0.001v0c1.632 0 1.922-1.14 1.97-1.632-0.643-0.141-1.103-0.278-1.512-0.534-0.491-0.305-0.866-0.751-1.258-1.495-0.125-0.233-0.447-0.658-0.815-1.008l-0.054-0.051c-0.072-0.067-0.144-0.127-0.212-0.181-0.059-0.044-0.114-0.084-0.165-0.117h-0.003l-0.032-0.022c-0.259-0.151-0.519-0.26-0.788-0.327-0.199-0.052-0.419-0.077-0.655-0.077 0.010 0.106 0.018 0.213 0.018 0.337 0.002 1.097-0.217 1.508-0.391 1.76 0.505 0.078 1.22 0.266 1.893 0.726z"></path>
<path d="M13.277 22.573c-0.122 0.057-0.236 0.113-0.346 0.169 0.559-0.047 1.178-0.348 1.683-0.592 0.092-0.044 0.181-0.088 0.267-0.127-0.175 0.009-0.525 0.106-0.948 0.269-0.22 0.086-0.447 0.183-0.656 0.282z"></path>
<path d="M14.207 16.916c-0.026 0.253-0.015 0.463 0.031 0.639 0.063 0.242 0.197 0.436 0.42 0.608 1.335-0.105 2.559-0.364 3.547-0.75 0.121-0.047 0.237-0.096 0.35-0.148-0.434 0.044-0.848 0.083-1.205 0.104l-0.242 0.007c-0.057 0.003-0.115 0.005-0.168 0.005-1.213-0.001-2.235-0.292-2.733-0.465z"></path>
<path d="M24.227 0.753c-0.002 0.179-0.003 0.41-0.003 0.57l0.876-0.128-0.012 0.203c-0.011 0.157-0.052 0.326-0.087 0.476-0.007 0.026-0.014 0.053-0.020 0.077 0.187 0.005 0.503 0.011 0.69 0.011-0.042-0.233-0.098-0.514-0.1-0.531l-0.042-0.201h0.203c0.069 0 0.278 0.027 0.693 0.090l0.004-0.561c-0.207 0.028-0.512 0.073-0.62 0.089-0.038 0.006-0.059 0.009-0.059 0.009l-0.171 0.028v-0.193c0-0.116 0.053-0.476 0.086-0.691l-0.683-0.001c0.038 0.236 0.105 0.66 0.105 0.683l0.032 0.199-0.22-0.030c-0.203-0.028-0.487-0.071-0.672-0.099z"></path>
<path d="M2.211 12.997c-0.076 0.337-0.007 0.771 0.183 1.142 0.097 0.191 0.221 0.356 0.367 0.49 0.158 0.147 0.338 0.252 0.537 0.317 0.152 0.049 0.316 0.073 0.488 0.073 0.379 0 0.804-0.119 1.261-0.352l0.112-0.057 0.245 0.478-0.112 0.059c-0.552 0.282-1.080 0.419-1.561 0.406-0.080 0.197-0.129 0.383-0.149 0.564-0.022 0.197-0.009 0.412 0.038 0.639 0.29 0.102 0.787 0.441 0.717 1.575 0.041 0.022 0.086 0.044 0.135 0.065 0.062 0.027 0.129 0.054 0.201 0.079 0.367 0.129 0.771 0.207 1.082 0.207 0.166 0 0.323-0.019 0.473-0.056 0.502-0.119 0.849-0.415 1.051-0.642 0.242-0.27 0.421-0.598 0.493-0.902 0.020-0.086 0.030-0.163 0.030-0.23 0-0.076-0.006-0.155-0.016-0.234-0.005-0.040-0.012-0.079-0.020-0.121-0.007-0.038-0.015-0.077-0.024-0.114-0.036-0.149-0.073-0.235-0.095-0.263l-0.076-0.102 0.43-0.323 0.076 0.102c0.098 0.131 0.16 0.345 0.189 0.461 0.011 0.044 0.021 0.094 0.030 0.144 0.009 0.049 0.015 0.098 0.023 0.15 0.012 0.101 0.020 0.203 0.020 0.302 0 0.108-0.014 0.228-0.043 0.354-0.048 0.201-0.15 0.431-0.305 0.684 0.208 0.118 0.532 0.267 0.9 0.43 1.096 0.491 2.579 1.158 3.064 2.035 0.004-0.002 0.008-0.004 0.013-0.006 0.090-0.044 0.177-0.082 0.256-0.114-0.244-0.439-0.323-0.949-0.342-1.339-0.653-0.185-1.493-0.645-2.22-1.22-0.147-0.115-0.281-0.232-0.403-0.343-0.127-0.117-0.241-0.232-0.34-0.343l-0.084-0.096 0.393-0.358 0.085 0.085c0.092 0.104 0.191 0.203 0.311 0.315 0.117 0.105 0.242 0.214 0.372 0.317 0.615 0.487 1.326 0.89 1.895 1.078l0.014-0.172 0.267 0.020c0.585 0.040 1.185 0.047 1.801 0.024-0.127-0.166-0.212-0.335-0.259-0.51-0.084-0.323-0.084-0.703 0.006-1.194l0.061-0.329c-0.088-0.048-0.177-0.096-0.265-0.145l-0.046-0.027c-0.876-0.491-1.73-1.053-2.403-1.585-0.133-0.105-0.261-0.21-0.385-0.317-0.123-0.105-0.236-0.209-0.337-0.309l-0.265-0.226 0.303-0.195c0.437-0.286 0.727-0.547 0.909-0.823 0.189-0.286 0.276-0.606 0.276-1.007-0.001-0.352-0.104-0.649-0.306-0.882-0.040-0.046-0.082-0.089-0.127-0.127s-0.092-0.073-0.14-0.105c-0.027-0.018-0.053-0.034-0.081-0.047-0.381-0.026-0.688-0.078-0.93-0.157-0.088-0.028-0.169-0.063-0.253-0.104 0 0.044 0 0.090 0.001 0.138 0.011 0.449 0.026 1.062-0.305 2.024l-0.042 0.12-0.509-0.175 0.042-0.121c0.297-0.872 0.286-1.43 0.275-1.835-0.004-0.209-0.009-0.391 0.028-0.565-0.251-0.399-0.506-0.677-0.8-0.87-0.378-0.249-0.832-0.358-1.398-0.352-0.469 0.699-1.306 0.854-1.545 0.884-0.207 0.155-0.325 0.294-0.387 0.461-0.057 0.153-0.077 0.362-0.065 0.672 0.069 0.018 0.139 0.034 0.211 0.049 0.253 0.046 0.48 0.193 0.738 0.478 0.205 0.227 0.416 0.52 0.71 0.941l0.073 0.104-0.443 0.31-0.073-0.105c-0.282-0.403-0.483-0.684-0.667-0.887-0.171-0.191-0.309-0.289-0.434-0.311-0.176-0.032-0.326-0.073-0.477-0.113-0.28-0.075-0.547-0.147-0.928-0.169-0.23-0.018-0.399 0.015-0.537 0.1-0.129 0.076-0.259 0.216-0.408 0.437 0.211 1.037-0.337 1.514-0.579 1.669z"></path>
<path d="M33.956 62.948c0.247-0.125 0.596-0.191 0.836-0.224-0.003-0.144-0.018-0.277-0.045-0.397-0.064-0.29-0.195-0.519-0.39-0.677-0.203-0.168-0.4-0.197-0.474-0.203-0.011 0-0.018-0.001-0.023-0.001-0.040 0-0.059 0.002-0.073 0.006-0.048 0.014-0.234 0.168-0.452 0.471-0.045 0.065-0.090 0.129-0.128 0.194-0.043 0.069-0.083 0.142-0.121 0.217-0.125 0.253-0.172 0.507-0.148 0.78 0.014 0.166 0.053 0.34 0.121 0.529 0.241-0.232 0.592-0.545 0.898-0.697z"></path>
<path d="M31.685 59.632c0.065-0.317 0.096-0.887-0.379-1.314-0.246 0.043-0.982 0.219-1.339 0.842-0.168 0.295-0.191 0.66-0.179 0.933 0.37-0.235 0.92-0.527 1.377-0.528 0.105 0 0.279 0.022 0.521 0.067z"></path>
<path d="M19.046 9.87c-0.008 0.501 0.073 0.83 0.251 1.007 0.16 0.158 0.424 0.231 0.858 0.231 0.202 0 0.326-0.016 0.446-0.030 0.136-0.018 0.269-0.035 0.478-0.035l0.109 0.002c0.27 0 0.488-0.121 0.701-0.237 0.211-0.116 0.427-0.237 0.68-0.237 0.242 0 0.43 0.030 0.598 0.098l0.128 0.050-0.003 0.007c0.108 0.057 0.217 0.133 0.347 0.239 0.332 0.276 0.53 0.542 0.642 0.862 0.114 0.323 0.135 0.695 0.132 1.153-0.007 1.088-0.117 1.828-0.334 2.261-0.222 0.443-0.517 0.518-0.749 0.532-0.176 0.014-0.77 0.052-1.339 0.052-0.348 0-0.625-0.015-0.823-0.043-0.123-0.017-0.244-0.042-0.374-0.069-0.086-0.018-0.179-0.036-0.298-0.058-0.196-0.034-0.337-0.065-0.483-0.12-0.132-0.052-0.252-0.12-0.437-0.236-0.036-0.022-0.084-0.056-0.137-0.093l-0.062-0.043c-0.026-0.020-0.050-0.034-0.071-0.049-0.004 0.111-0.011 0.239-0.026 0.376-0.050 0.444-0.178 0.847-0.379 1.202l0.158-0.017c0.654-0.069 1.33-0.142 1.715-0.143h0.001c0.102 0 0.229 0.010 0.386 0.030 0.105 0.014 0.217 0.030 0.329 0.050 0.111 0.019 0.236 0.042 0.367 0.068 0.566 0.113 1.064 0.258 1.375 0.399 0.183-0.012 0.66-0.034 1.167-0.059l0.923-0.045c0.121-0.070 0.234-0.154 0.34-0.249 0.129-0.114 0.257-0.25 0.377-0.401 0.575-0.724 1.056-1.898 0.828-2.889l-0.027-0.124 0.526-0.118 0.028 0.122c0.268 1.164-0.275 2.519-0.934 3.345-0.142 0.179-0.29 0.337-0.439 0.468-0.017 0.017-0.036 0.032-0.055 0.046 0.598 0.197 1.537 0.533 2.034 1.584 0.164 0.1 0.642 0.424 0.782 0.891 0.006 0.003 0.015 0.005 0.022 0.008 0.038 0.014 0.075 0.028 0.115 0.047 0.278 0.138 0.567 0.306 0.862 0.5 0.075-1.413-1.321-2.397-1.382-2.441l-0.781-0.53 0.944 0.040c0.6 0.025 1.027-0.024 1.345-0.148 0.267-0.105 0.443-0.259 0.662-0.466 0.344-0.325 0.507-0.72 0.582-0.992-0.709-0.014-1.252-0.206-1.615-0.57-0.439-0.443-0.441-0.988-0.441-1.011v-0.3l0.298 0.031c1.283 0.137 1.863-0.643 2.088-1.108-0.255-0.028-0.479-0.079-0.678-0.155-0.302-0.113-0.54-0.281-0.732-0.512-0.324-0.392-0.352-1.113-0.379-1.809-0.007-0.214-0.015-0.424-0.033-0.632l-0.011-0.127 0.15-0.020-0.004-0.148 0.203-0.007c0.049 0 0.098 0.001 0.148 0.003 0.030-0.061 0.065-0.121 0.113-0.187 0.148-0.205 0.346-0.485 0.342-1.521 0-0.599-0.096-1.020-0.174-1.266-0.494 0.196-0.811 0.381-1.018 0.595-0.23 0.239-0.354 0.542-0.416 1.014-0.057 0.449-0.010 1.103-0.004 1.176l0.028 0.295-0.295 0.002c-0.34 0-0.582-0.018-0.81-0.101-0.248-0.092-0.46-0.256-0.686-0.533l-0.079-0.098 0.419-0.34 0.079 0.098c0.161 0.199 0.298 0.31 0.453 0.367 0.091 0.032 0.193 0.052 0.337 0.061-0.012-0.274-0.019-0.674 0.022-0.994 0.078-0.596 0.245-0.991 0.563-1.32 0.155-0.161 0.351-0.306 0.598-0.442-0.189-0.016-0.381-0.022-0.58-0.022-0.434 0.001-0.778 0.073-1.058 0.222-0.232 0.123-0.428 0.3-0.598 0.546-0.148 0.212-0.236 0.528-0.232 0.804 0.002 0.056 0.007 0.111 0.017 0.169 0.011 0.052 0.022 0.105 0.042 0.154l0.045 0.118-0.491 0.189-0.053-0.103c-0.036-0.096-0.059-0.18-0.073-0.265-0.015-0.080-0.022-0.165-0.024-0.251-0.008-0.39 0.119-0.819 0.328-1.121 0.089-0.131 0.195-0.251 0.319-0.364-0.116-0.008-0.234-0.015-0.356-0.020-0.356-0.018-0.744-0.024-1.259-0.024h-0.092c-0.748 0.001-1.845 0.059-2.634 0.107-0.168 0.011-0.329 0.020-0.477 0.030-0.117 0.008-0.224 0.016-0.32 0.022-0.040 0.149-0.094 0.32-0.103 0.338l-0.050 0.101-0.078-0.028-0.003 0.1-0.127-0.006c-0.121-0.007-0.242-0.005-0.366 0.001-0.401 0.019-0.778 0.101-1.064 0.23-0.199 0.089-0.452 0.247-0.538 0.491-0.020 0.061-0.030 0.125-0.030 0.193 0 0.127 0.055 0.227 0.105 0.294 0.172-0.042 0.292-0.082 0.369-0.108 0.21-0.072 0.36-0.128 0.704-0.102l0.127 0.009-0.038 0.54-0.127-0.010c-0.224-0.014-0.317 0.015-0.49 0.073-0.143 0.049-0.308 0.105-0.576 0.16-0.338 0.071-0.526 0.172-0.626 0.334-0.107 0.176-0.154 0.455-0.162 0.963zM22.089 7.081l0.002 0.001c0.033-0.116 0.167-0.421 0.354-0.578l0.098-0.080 0.346 0.412-0.096 0.082c-0.006 0.005-0.014 0.012-0.021 0.021 1.019 0.183 1.461 0.878 1.51 0.962l0.306 0.525-0.591-0.123c-0.207-0.042-0.771-0.105-1.252-0.105v-0.127l-0.011 0.127c-0.084 0-0.165 0.003-0.241 0.008-0.069 0.005-0.127 0.012-0.172 0.021l-0.123 0.026-0.118-0.523 0.154-0.034c-0.034-0.081-0.065-0.172-0.081-0.265l-0.174-0.005 0.112-0.344z"></path>
<path d="M49.242 44.578c0.045-0.165 0.073-0.337 0.087-0.511 0.006-0.078 0.010-0.155 0.010-0.23-0.002-0.551-0.191-0.919-0.366-1.141-0.282 0.815-0.68 0.852-1.625 0.94-0.298 0.028-0.632 0.062-1.041 0.121-1.694 0.249-2.132 1.029-2.136 1.036l-0.27 0.498-0.236-0.059-0.003-0.567c-0.002-0.735-0.352-1.473-0.891-1.884-0.125-0.094-0.255-0.17-0.389-0.226-0.145-0.060-0.299-0.103-0.459-0.123-0.087-0.011-0.179-0.017-0.272-0.017-0.278 0-0.737 0.183-1.224 0.488-0.115 0.073-0.231 0.152-0.34 0.233-0.106 0.080-0.21 0.162-0.306 0.247-0.094 0.083-0.177 0.168-0.249 0.249-0.407 0.457-0.724 0.795-1.104 1.008-0.363 0.201-0.772 0.285-1.411 0.287-0.868 0-1.473-0.267-1.919-0.846-0.425-0.548-0.701-1.393-0.869-2.659-0.206-1.551-0.389-2.428-0.654-3.13-0.271-0.716-0.653-1.304-1.227-2.192l-0.067-0.104 0.433-0.298 0.073 0.091c0.057 0.078 1.322 1.766 4.679 1.766 1.012-0.002 2.129-0.3 3.165-0.84 0.201-0.104 0.4-0.218 0.589-0.338 0.193-0.123 0.376-0.249 0.546-0.379 0.061-0.045 0.125-0.097 0.191-0.15 0.626-0.513 1.090-1.075 1.418-1.711 0.383-0.745 0.577-1.614 0.575-2.578-0.005-1.353-0.088-1.683-0.368-2.777l-0.086-0.332c-0.247-0.974-0.526-2.065-0.819-3.16-0.34-1.273-0.652-2.383-0.957-3.395-0.66-2.194-1.117-3.905-1.44-5.385-0.409-1.881-0.609-3.428-0.613-4.727-0.004-1.901 0.328-2.534 0.621-3.094l0.042-0.079c0.329-0.627 0.647-1.020 1.026-1.275 0.374-0.247 0.807-0.358 1.405-0.359 1.149 0 1.883 0.228 2.266 0.695 0.295 0.358 0.33 0.795 0.31 1.165 0.28-0.012 0.627-0.022 0.984-0.029 0.376-0.009 0.752-0.015 1.061-0.020-0.008-0.216-0.028-0.422-0.058-0.614-0.037-0.228-0.090-0.448-0.155-0.654-0.317-0.954-0.992-1.61-1.951-1.898-0.126-0.037-0.256-0.071-0.389-0.1-0.23-0.052-0.472-0.092-0.724-0.12-0.258-0.029-0.526-0.047-0.8-0.053l-0.127-0.001c-0.839 0-2.423 0.131-3.584 1.016-0.744 0.567-1.264 1.318-1.587 2.297-0.274 0.821-0.403 1.793-0.401 2.974 0.003 1.529 0.238 3.284 0.714 5.363 0.442 1.917 1.050 3.932 1.54 5.551 0.441 1.463 0.802 2.864 1.153 4.221l0.057 0.215c0.080 0.31 0.16 0.62 0.251 0.961l0.061 0.23c0.273 1.027 0.452 1.706 0.456 3.255 0 0.251-0.019 0.496-0.055 0.73-0.183 1.168-0.815 2.064-1.877 2.664-0.992 0.559-2.087 0.683-2.51 0.71-0.111 0.008-0.218 0.010-0.313 0.010h-0.036c-0.081 0-0.162-0.002-0.239-0.008-0.289-0.017-0.581-0.065-0.868-0.144-0.275-0.072-0.554-0.178-0.827-0.311-1.313-0.643-2.4-1.894-3.062-3.525l-0.054-0.141c-0.373-1.004-0.45-2.19-0.524-3.337-0.015-0.237-0.032-0.472-0.049-0.711-0.090-0.113-0.178-0.22-0.265-0.319-0.207-0.238-0.429-0.465-0.656-0.675-0.214-0.197-0.435-0.378-0.659-0.54-0.912-0.664-1.92-1.045-2.763-1.045-1.853 0.003-3.811 1.672-4.028 1.864l-0.246 0.214-0.166-0.278c-0.029-0.045-0.059-0.101-0.087-0.166-0.027-0.057-0.052-0.123-0.074-0.193-0.094-0.295-0.135-0.696-0.117-1.145-0.47 0.063-1.116 0.348-1.895 0.709-0.253 0.117-0.509 0.235-0.779 0.353-0.907 0.398-1.831 0.645-2.758 0.738-0.168 0.015-0.334 0.028-0.497 0.035-0.111 0.005-0.222 0.007-0.331 0.007l-0.147-0.001c-0.007 0-0.014-0.001-0.020-0.001-0.802 0.531-2.22 1.143-3.475 1.683l-0.249 0.108c-0.046 0.026-0.187 0.119-0.335 0.216l-0.049 0.032c-0.683 0.449-1.957 1.287-3.242 1.894l-0.42 0.195 0.023-0.447c0.003-0.055 0.064-1.32-0.889-2.256-0.424-0.415-0.808-0.471-1.13-0.471-0.184 0-0.377 0.022-0.579 0.042l-0.132 0.014c-0.267 0.91-1.085 0.984-1.336 0.984-0.015 0-0.030-0.001-0.042-0.001-0.176 0.15-0.286 0.302-0.325 0.453-0.022 0.086-0.024 0.172-0.015 0.256 0.117-0.013 0.244-0.002 0.356 0.007 0.18 0.015 0.36 0.046 0.54 0.094 0.109 0.028 0.216 0.062 0.321 0.102v-0.006l0.178 0.078c0.744 0.329 1.343 0.938 1.602 1.627l0.044 0.117-0.505 0.191-0.044-0.119c-0.211-0.556-0.703-1.051-1.317-1.323l-0.067-0.029c-0.111-0.048-0.229-0.088-0.347-0.118-0.148-0.039-0.299-0.064-0.449-0.077-0.081-0.007-0.16-0.011-0.237-0.011-0.607 0.002-1.096 0.185-1.378 0.513-0.055 0.064-0.102 0.135-0.14 0.209s-0.065 0.154-0.084 0.238c-0.009 0.040-0.015 0.083-0.020 0.128 0.018 0.075 0.042 0.193 0.066 0.327 0.038 0.209 0.058 0.375 0.058 0.493 0.001 0.482-0.126 0.764-0.247 0.923 0.006 0.026 0.011 0.050 0.019 0.073 0.020 0.070 0.042 0.137 0.066 0.2 0.105 0.271 0.256 0.504 0.433 0.668 0.273-0.289 0.618-0.521 1.004-0.67 0.292-0.112 0.598-0.184 0.913-0.212l0.127-0.010 0.046 0.537-0.127 0.014c-0.265 0.022-0.521 0.081-0.765 0.176-0.388 0.15-0.71 0.378-0.93 0.659-0.216 0.278-0.317 0.594-0.29 0.911 0.007 0.081 0.028 0.172 0.062 0.277 0.166 0.079 0.329 0.201 0.466 0.346 0.039 0.040 0.075 0.083 0.11 0.127 0.036 0.045 0.069 0.094 0.1 0.144 0.172 0.276 0.172 0.865 0.154 1.223 0.025 0.034 0.053 0.065 0.081 0.095l0.035 0.038c0.052 0.050 0.111 0.101 0.175 0.149 0.075 0.057 0.155 0.107 0.239 0.154 0.367 0.199 0.833 0.313 1.311 0.313 0.092 0 0.169-0.004 0.245-0.012 0.131-0.012 0.263-0.034 0.395-0.065 0.126-0.032 0.249-0.072 0.364-0.119 0.462-0.189 0.824-0.505 0.965-0.833-0.189-0.241-0.329-0.488-0.416-0.736-0.139-0.391-0.187-0.792-0.134-1.133 0.042-0.267 0.145-0.493 0.298-0.658l0.087-0.094 0.393 0.372-0.086 0.091c-0.079 0.084-0.133 0.211-0.157 0.372-0.040 0.253 0 0.563 0.108 0.869 0.113 0.32 0.295 0.608 0.511 0.812 0.193 0.181 0.404 0.288 0.629 0.324 0.564 0.085 1.093 0.013 1.486-0.203 0.069-0.039 0.133-0.081 0.191-0.125 0.036-0.026 0.068-0.056 0.099-0.088 0.057-0.28 0.317-1.227 1.274-1.344 0.060-0.12 0.119-0.275 0.167-0.439 0.018-0.063 0.033-0.121 0.045-0.175 0.013-0.057 0.024-0.114 0.033-0.171 0.015-0.095 0.024-0.18 0.024-0.253-0.001-0.876-0.413-1.459-0.657-1.727-0.071-0.079-0.148-0.151-0.226-0.216-0.075-0.063-0.149-0.114-0.218-0.154-0.040-0.022-0.075-0.042-0.109-0.057l-0.115-0.053 0.222-0.491 0.114 0.052c0.054 0.024 0.107 0.051 0.161 0.083 0.098 0.058 0.197 0.126 0.291 0.203 0.098 0.080 0.193 0.172 0.282 0.271 0.201 0.22 0.374 0.484 0.506 0.77 0.697-0.123 1.372-0.373 1.871-0.556l0.51-0.185 0.116 0.182c0.011 0.019 0.973 1.566 3.042 1.566 0.094 0 0.182-0.004 0.27-0.008 0.152-0.011 0.304-0.025 0.453-0.048 0.151-0.020 0.295-0.049 0.434-0.083 0.393-0.094 0.764-0.236 1.072-0.413-0.151-0.042-0.3-0.093-0.445-0.154-0.794-0.333-1.479-0.954-1.838-1.662l-0.056-0.113 0.481-0.243 0.058 0.113c0.3 0.595 0.885 1.121 1.564 1.407 0.148 0.063 0.296 0.111 0.443 0.148 0.156 0.039 0.31 0.063 0.457 0.074 0.079 0.008 0.155 0.011 0.227 0.011 0.26 0 0.564-0.078 0.903-0.229 0.282-0.127 0.593-0.306 0.949-0.548 0.476-0.325 0.707-0.645 0.818-0.866-1.926-0.014-2.378-1.048-2.397-1.093l-0.104-0.255 0.256-0.1c1.446-0.563 2.84-0.847 4.142-0.847 0.127 0 0.253 0.003 0.381 0.009 0.306 0.014 0.61 0.044 0.907 0.092 0.244 0.038 0.491 0.091 0.737 0.154v-0.011l0.306 0.096 0.042 0.14c0.016 0.055 0.442 1.337 1.987 1.337 0.038 0 0.076-0.001 0.116-0.002l0.127-0.005 0.022 0.538-0.127 0.005c-0.273 0.011-0.512-0.014-0.771-0.073 0.024 0.242 0.156 0.487 0.372 0.69 0.239 0.226 0.559 0.385 0.923 0.462 0.23 0.048 0.47 0.061 0.72 0.039l0.127-0.010 0.046 0.536-0.129 0.014c-0.306 0.027-0.602 0.011-0.878-0.049-0.461-0.097-0.868-0.303-1.182-0.596-0.315-0.296-0.507-0.666-0.54-1.044-0.007-0.070-0.002-0.14 0.006-0.207-0.8-0.366-1.161-1.048-1.282-1.329-0.232-0.063-0.468-0.113-0.708-0.15-0.27-0.042-0.554-0.070-0.846-0.084-1.254-0.059-2.578 0.174-3.977 0.679 0.25 0.242 0.848 0.597 2.079 0.519l0.316-0.019-0.031 0.316c0 0-0.053 0.812-1.153 1.562-0.381 0.26-0.72 0.456-1.033 0.596-0.044 0.020-0.089 0.036-0.134 0.053 0.174 0.157 0.434 0.267 0.928 0.454l0.063 0.022c0.133 0.053 0.282 0.108 0.433 0.168 0.191 0.075 0.379 0.181 0.557 0.311 0.164 0.121 0.323 0.263 0.469 0.423 0.131 0.142 0.261 0.304 0.381 0.486 0.452 0.67 0.697 1.441 0.698 1.824 0 0.105-0.003 0.212-0.011 0.319-0.032 0.468-0.133 1.013-0.232 1.539-0.123 0.661-0.248 1.33-0.247 1.849 0.001 0.461 0.135 0.826 0.277 1.214 0.131 0.357 0.268 0.726 0.306 1.186 0.067 0.784 0.161 1.366 0.303 1.884 0.161 0.59 0.395 1.128 0.734 1.69 0.144 0.239 0.284 0.464 0.416 0.676 0.662 1.060 1.232 1.975 1.234 2.831 0 0.694-0.121 1.184-0.249 1.512 0.315-0.046 0.777-0.164 1.259-0.464 0.441-0.273 0.784-0.552 1.084-0.874 0.325-0.35 0.602-0.778 0.824-1.271-0.451-0.332-0.838-0.686-1.151-1.044-0.262-0.303-0.48-0.615-0.647-0.929-0.18-0.338-0.305-0.68-0.366-1.019-0.020-0.104-0.034-0.21-0.042-0.313l-0.010-0.126 0.538-0.041 0.010 0.127c0.008 0.086 0.017 0.17 0.034 0.255 0.051 0.282 0.156 0.573 0.312 0.864 0.148 0.279 0.342 0.557 0.577 0.828 1.13 1.304 3.041 2.288 4.446 2.288 1.892-0.004 3.66-0.949 3.678-0.957l0.267-0.138 0.121 0.299c0.061 0.152 0.116 0.325 0.17 0.519 0.053 0.197 0.106 0.415 0.15 0.645 0.255 1.303 0.319 2.829 0.16 3.889-0.071 0.488-0.183 0.761-0.383 0.947-0.203 0.186-0.476 0.263-0.94 0.263-0.001 0-0.001 0-0.001 0-0.464 0-0.761-0.049-0.987-0.16-0.245-0.119-0.376-0.293-0.5-0.459-0.565-0.755-1.011-1.221-1.449-1.512-0.422-0.281-0.854-0.407-1.397-0.407-0.869 0.002-1.054 0.324-1.18 0.602 0.089 0.183 0.137 0.411 0.137 0.666 0.002 0.714-0.391 1.108-0.569 1.248-0.015 0.108-0.027 0.245-0.017 0.4 0.006 0.093 0.026 0.191 0.061 0.298 0.040-0.032 0.081-0.063 0.127-0.093 0.179-0.119 0.346-0.186 0.493-0.2 0.043-0.006 0.091-0.009 0.151-0.012 0.053-0.003 0.123-0.005 0.201-0.007l0.16-0.001c0.298 0 0.854 0.014 1.233 0.117l0.122 0.034-0.14 0.522-0.123-0.033c-0.319-0.087-0.815-0.102-1.081-0.102l-0.158 0.002c-0.069 0.002-0.131 0.004-0.187 0.007-0.050 0.002-0.090 0.006-0.115 0.008-0.047 0.005-0.127 0.028-0.258 0.116-0.102 0.067-0.197 0.148-0.286 0.225-0.317 0.273-0.374 0.6-0.425 0.916 0.785 0.721 0.569 1.711 0.484 1.998 0.022 0.051 0.043 0.104 0.069 0.154 0.038 0.073 0.081 0.142 0.127 0.207 0.164 0.227 0.383 0.401 0.633 0.5-0.021-0.451 0.034-1.036 0.332-1.568v-0.003l0.018-0.030c0.28-0.482 0.614-0.794 1.023-0.956 0.366-0.145 0.779-0.172 1.34-0.084l0.125 0.020-0.081 0.53-0.127-0.022c-0.457-0.070-0.783-0.056-1.056 0.054-0.295 0.116-0.534 0.348-0.755 0.728-0.31 0.531-0.302 1.158-0.267 1.508 0.049-0.028 0.093-0.047 0.132-0.055 0.076-0.016 0.157-0.020 0.246-0.016 0.267 0.018 0.552 0.137 0.78 0.324 0.286 0.234 0.485 0.573 0.575 0.976 0.035 0.157 0.051 0.344 0.051 0.552 0.061 0.020 0.129 0.043 0.192 0.071 0.419 0.188 0.688 0.306 0.951 0.351 0.251 0.043 0.496 0.030 0.992-0.051 0.729-0.122 1.219-0.41 1.544-0.909 0.329-0.507 0.507-1.266 0.541-2.317l0.009-0.262h0.261c0.009 0 0.030 0 0.061-0.001-0.174-0.252-0.267-0.596-0.385-1.223l-0.024-0.125 0.529-0.099 0.023 0.124c0.195 1.023 0.265 1.068 0.804 1.428l0.148 0.1c0.827 0.556 1.684 0.769 2.52 0.629 0.137-0.023 0.272-0.057 0.402-0.096 0.133-0.040 0.257-0.085 0.368-0.134l0.028-0.017 0.008 0.001c0.564-0.259 0.654-0.721 0.666-1.097 0.002-0.056 0.002-0.106 0.002-0.154-0.061-0.058-0.122-0.119-0.172-0.185-0.073-0.1-0.133-0.206-0.176-0.315l-0.010-0.025c-0.018-0.047-0.034-0.096-0.045-0.141-0.026-0.107-0.042-0.22-0.042-0.334 0-0.558 0.172-1.066 0.267-1.304-0.145-0.284-0.298-0.496-0.471-0.646-0.199-0.172-0.425-0.271-0.686-0.298-0.802-0.081-1.442 0.45-1.448 0.455l-0.672 0.546 0.242-0.829c0.726-2.483 2.437-2.862 3.123-2.912-0.066-1.394-0.139-2.976-0.139-2.988l-0.012-0.295 0.298 0.020c0.901 0.064 1.611-0.049 2.175-0.318 0.415-0.2 0.738-0.486 0.959-0.851 0.19-0.313 0.304-0.687 0.33-1.081 0.022-0.332-0.022-0.674-0.128-0.977-0.324 0.172-0.657 0.265-0.988 0.276-0.701 0.023-1.25 0.075-1.679 0.158-0.66 0.128-0.822 0.282-0.859 0.362l-0.052 0.114-0.491-0.228 0.054-0.114c0.146-0.313 0.553-0.531 1.244-0.665 0.45-0.086 1.028-0.142 1.766-0.168 0.714-0.022 1.353-0.472 1.707-1.198 0.079-0.145 0.137-0.301 0.181-0.459zM16.399 30.946c-0.567 0.192-1.047 0.364-1.465 0.513-1.147 0.408-1.824 0.649-2.526 0.736l-0.127 0.014-0.063-0.535 0.125-0.015c0.643-0.079 1.299-0.313 2.386-0.701 0.432-0.153 0.922-0.328 1.495-0.523l0.121-0.042 0.173 0.513-0.119 0.039z"></path>
<path d="M45.274 58.526c0.193-0.102 0.532-0.226 1.025-0.228 0.449 0 0.773 0.090 0.998 0.192 0.002-0.401-0.067-1.034-0.504-1.277-0.315-0.179-0.977-0.257-1.525-0.275-0.079 0.212-0.206 0.615-0.204 1.040 0 0.068 0.008 0.136 0.025 0.201l0.004 0.031c0.005 0.005 0.017 0.036 0.028 0.069 0.025 0.063 0.065 0.128 0.108 0.191 0.014 0.020 0.029 0.038 0.046 0.055z"></path>
<path d="M30.727 54.975c0.409 0 0.738 0.155 0.934 0.279 0.121-0.122 0.289-0.362 0.289-0.761-0.002-0.201-0.036-0.33-0.065-0.402-0.193-0.021-0.379-0.025-0.556-0.017-0.464 0.023-0.862 0.148-1.153 0.359-0.249 0.183-0.407 0.423-0.463 0.699 0.178-0.027 0.423-0.067 0.666-0.122 0.117-0.023 0.233-0.035 0.348-0.035z"></path>
<path d="M14.379 10.922c-0.004 0.064-0.004 0.129 0 0.195 0.031 0.43 0.123 0.769 0.28 1.037 0.154 0.265 0.376 0.464 0.677 0.611 0.499 0.241 1.076 0.401 1.762 0.488 0.66 0.085 1.349 0.098 1.936 0.098h0.111c0.17 0 0.348-0.010 0.528-0.020l0.053-0.003c0.221-0.014 0.439-0.024 0.662-0.024 0.464 0 1.085 0.047 1.764 0.415 0.891 0.485 1.227 1.044 1.354 1.413 0.028-0.032 0.059-0.075 0.089-0.137 0.117-0.234 0.198-0.616 0.242-1.138-0.3-0.016-0.744-0.084-1.066-0.327l-0.153-0.116c-0.379-0.288-0.644-0.463-1.294-0.463-0.426 0.001-0.528 0.056-0.636 0.113-0.16 0.085-0.325 0.173-0.864 0.174-0.284 0-0.614-0.002-0.917-0.020-0.346-0.022-0.62-0.059-0.837-0.116-0.534-0.143-1.011-0.376-1.416-0.697-0.076-0.061-0.148-0.121-0.212-0.181-0.070-0.065-0.134-0.129-0.191-0.193-0.305-0.329-0.455-0.865-0.402-1.435 0.010-0.104 0.026-0.206 0.049-0.309 0.022-0.096 0.047-0.189 0.080-0.28l0.007-0.021 0.034 0.005-0.032-0.013c0.076-0.209 0.191-0.445 0.299-0.65-0.42 0.062-0.853 0.231-1.191 0.468-0.305 0.214-0.676 0.583-0.716 1.125z"></path>
<path d="M23.254 7.676c-0.142-0.074-0.318-0.143-0.532-0.187 0.024 0.065 0.056 0.125 0.090 0.169 0.136 0.001 0.286 0.007 0.441 0.018z"></path>
<path d="M5.298 7.46c-0.162 0-0.338 0.021-0.522 0.061 0.351 0.255 0.765 0.673 0.853 1.265 0.29-0.069 0.699-0.229 0.951-0.6-0.119-0.23-0.469-0.726-1.282-0.726z"></path>
<path d="M10.152 9.7c0.177 0.058 0.389 0.098 0.65 0.122 0.044-0.191 0.090-0.538-0.014-0.959-0.038-0.156-0.111-0.387-0.3-0.583-0.122-0.127-0.285-0.232-0.486-0.315 0.094 0.387 0.138 0.969-0.145 1.602 0.090 0.054 0.187 0.096 0.294 0.132z"></path>
<path d="M28.68 20.184c-0.314-0.154-0.625-0.28-0.93-0.376-0.302-0.095-0.59-0.154-0.856-0.177-0.083-0.007-0.16-0.011-0.232-0.011-1.040 0.003-2.632 0.238-4.262 0.627-0.314 0.076-0.629 0.157-0.937 0.241-0.282 0.078-0.553 0.158-0.811 0.238l-0.074 0.024c-0.124 0.040-0.233 0.074-0.327 0.105-0.463 0.155-0.895 0.253-1.36 0.304-0.404 0.045-0.87 0.058-1.492 0.051-0.316-0.005-0.631-0.007-0.886-0.007l-0.251 0.001c0.057 0.269 0.154 0.494 0.296 0.691 0.19 0.261 0.451 0.453 0.682 0.605l0.177 0.12c0.333 0.232 0.521 0.362 1.085 0.362 1.013-0.002 1.456-0.253 1.973-0.543 0.43-0.241 0.912-0.513 1.739-0.678 1.166-0.232 2.574-0.166 2.736-0.156 0.091-0.021 1.184-0.217 2.183-0.219 1.176 0 2.811 0.579 3.837 1.118 0.206 0.108 0.389 0.214 0.546 0.317-0.437-1.068-1.69-2.072-2.834-2.637z"></path>
<path d="M0.844 11.213c-0.284 0.113-0.447 0.317-0.54 0.512 0.061-0.004 0.121-0.006 0.181-0.006s0.119 0.002 0.176 0.006c0.567 0.042 1.042 0.292 1.383 0.726 0.164-0.158 0.337-0.462 0.227-1.009-0.183-0.095-0.617-0.295-1.042-0.295-0.141-0.001-0.271 0.022-0.384 0.067z"></path>
<path d="M2.926 37.283c0.011-0.379-0.018-0.667-0.078-0.764-0.022-0.036-0.044-0.067-0.069-0.098s-0.050-0.063-0.077-0.089l-0.015-0.016c-0.105-0.108-0.208-0.183-0.283-0.224-0.183 0.081-0.669 0.318-0.853 0.621-0.030 0.049-0.054 0.1-0.072 0.155-0.020 0.058-0.034 0.12-0.044 0.185-0.033 0.229-0.008 0.491 0.067 0.734 0.251-0.204 0.697-0.451 1.424-0.504z"></path>
<path d="M10.834 36.968c0.329 0.218 0.684 0.656 0.918 0.975 0.153-0.218 0.256-0.455 0.296-0.684 0.011-0.069 0.017-0.138 0.017-0.203 0-0.067-0.007-0.133-0.021-0.197-0.053-0.25-0.306-0.56-0.429-0.699-0.507 0.065-0.707 0.533-0.78 0.809z"></path>
<path d="M6.636 53.805c0.611-0.159 0.92-0.623 1.037-0.852-0.247-0.224-0.583-0.417-0.958-0.546-0.087-0.028-0.172-0.055-0.253-0.073-0.081-0.021-0.156-0.035-0.226-0.044s-0.136-0.016-0.19-0.016c-0.082 0-0.197 0.028-0.329 0.079-0.071 0.028-0.141 0.059-0.207 0.097-0.148 0.080-0.276 0.168-0.373 0.255-0.001 0.002-0.003 0.004-0.005 0.004 0.449 0.176 1.188 0.538 1.504 1.097z"></path>
<path d="M33.692 16.476c-0.338-0.765-0.689-1.31-1.107-1.714-0.372-0.361-0.823-0.633-1.418-0.851-0.415 0.303-0.909 0.458-1.469 0.462 0.131 0.325 0.536 0.821 1.768 0.746l0.311-0.018-0.027 0.31c0 0-0.073 0.94-0.809 1.638-0.019 0.017-0.036 0.032-0.053 0.049 0.17 0.049 0.35 0.119 0.537 0.212 1.099 0.546 2.26 1.751 2.703 2.805 0.099 0.237 0.191 0.435 0.276 0.604 0.388 0.011 1.324-0.037 2.109-0.632 0.515-0.387 0.66-0.921 0.702-1.231-0.772 0-1.405-0.148-1.934-0.45-0.664-0.38-1.183-1.011-1.589-1.929z"></path>
<path d="M3.473 58.392c0.317-0.040 0.661-0.026 1.026 0.042 0.267-0.654 0.13-1.111 0.044-1.297-0.127-0.019-0.248-0.027-0.362-0.027-0.179 0-0.342 0.021-0.497 0.065-0.251 0.070-0.443 0.193-0.596 0.305-0.417 0.301-0.395 0.777-0.315 1.105 0.218-0.099 0.453-0.163 0.699-0.193z"></path>
<path d="M1.683 32.619c0.042-0.081 0.096-0.245 0.096-0.55 0-0.084-0.017-0.223-0.048-0.399-0.009-0.053-0.020-0.104-0.028-0.15-0.351 0.001-0.992 0.061-1.384 0.451-0.178 0.178-0.284 0.41-0.318 0.691 0.177-0.066 0.358-0.109 0.548-0.13 0.321-0.038 0.688-0.008 1.135 0.087z"></path>
<path d="M8.119 49.178c0.462 0.2 0.967 0.3 1.502 0.3 0.294 0 0.592-0.030 0.889-0.093 0.241-0.050 0.493-0.128 0.77-0.239-0.265-0.241-0.536-0.502-0.822-0.789-0.325-0.327-0.53-0.84-0.641-1.193-1.060 0.521-2.134 0.731-3.172 0.613 0.011 0.032 0.023 0.065 0.038 0.095 0.265 0.559 0.777 1.021 1.436 1.305z"></path>
<path d="M9.742 63.034c0.078-0.016 0.16-0.040 0.245-0.069 0.082-0.032 0.168-0.071 0.254-0.119 0.368-0.201 0.712-0.536 0.975-0.949-0.247-0.358-0.281-0.691-0.281-0.946 0-0.088 0.009-0.189 0.026-0.296 0.012-0.069 0.026-0.139 0.043-0.209s0.038-0.144 0.061-0.212c0.107-0.327 0.262-0.612 0.434-0.802l0.085-0.094 0.4 0.362-0.084 0.095c-0.12 0.133-0.236 0.354-0.321 0.608-0.019 0.061-0.038 0.119-0.050 0.175-0.014 0.058-0.027 0.112-0.034 0.165-0.014 0.078-0.020 0.148-0.020 0.21 0.001 0.281 0.068 0.488 0.223 0.691 0.206 0.272 0.587 0.556 1.162 0.87 0.18 0.099 0.376 0.147 0.596 0.147 0.224 0 0.458-0.049 0.656-0.097 0.005-0.042 0.013-0.086 0.026-0.129 0.084-0.278 0.259-0.538 0.495-0.73 0.28-0.226 0.633-0.348 1.019-0.35 0.123 0 0.267 0.021 0.447 0.062 0.119-0.167 0.22-0.381 0.29-0.611 0.020-0.065 0.038-0.134 0.055-0.205 0.014-0.069 0.026-0.137 0.035-0.205 0.009-0.079 0.015-0.154 0.015-0.224 0-0.232-0.089-0.466-0.265-0.695-0.162-0.21-0.363-0.372-0.472-0.459-0.179-0.142-0.766-0.389-1.052-0.5l-0.508-0.189 0.459-0.291c0.576-0.364 1.216-0.523 1.888-0.472 0.548 0.040 1.137 0.219 1.75 0.529 0.261-0.234 0.805-0.761 1.383-1.527l0.105-0.138 0.169 0.038c0.262 0.059 2.511 0.61 2.847 2.288 0.296 0.014 0.93-0.063 1.562-0.889 0.213-0.28 0.251-0.977 0.194-1.506-0.009-0.089-0.021-0.167-0.033-0.228-0.013-0.059-0.020-0.077-0.020-0.077-0.241-0.42-0.918-0.926-1.725-1.283-0.139-0.063-0.28-0.119-0.421-0.166-0.143-0.049-0.272-0.087-0.387-0.112l-0.108-0.036 0.009-0.116 0.084-0.378h0.101c0.177 0.035 0.327 0.080 0.477 0.131 0.141 0.047 0.297 0.108 0.465 0.183 0.688 0.305 1.617 0.885 1.977 1.512l0.010 0.019c0.020 0.040 0.039 0.094 0.055 0.155 0.233-0.086 0.401-0.183 0.521-0.298 0.193-0.187 0.287-0.432 0.287-0.749-0.002-0.447-0.047-0.775-0.141-1.031-0.096-0.255-0.245-0.441-0.471-0.587-0.746-0.479-2.020-1.070-2.162-1.135l-0.296-0.135 0.181-0.265c0.062-0.092 0.133-0.187 0.205-0.283 0.317-0.427 0.644-0.866 0.643-1.533 0-0.292-0.044-0.487-0.148-0.654-0.12-0.195-0.337-0.381-0.686-0.585-0.319-0.187-0.674-0.305-1.118-0.374-0.443-0.066-0.936-0.075-1.358-0.075h-0.054c-0.996 0-1.934-0.476-2.456-1.244-0.108-0.16-0.199-0.331-0.267-0.511-0.070-0.185-0.119-0.375-0.143-0.569-0.011-0.094-0.018-0.191-0.018-0.294-0.001-0.625 0.079-1.343 0.682-1.929 0.569-0.554 1.536-0.936 3.044-1.203 0.17-0.030 0.376-0.045 0.63-0.045 0.347 0 0.732 0.027 1.071 0.053l0.044 0.002c-0.35-0.36-0.633-0.748-0.828-1.135-0.069-0.134-0.126-0.268-0.17-0.395-0.047-0.137-0.084-0.27-0.106-0.398-0.021-0.114-0.031-0.232-0.031-0.346-0.001-0.479 0.056-0.969 0.16-1.381 0.022-0.089 0.048-0.176 0.077-0.259 0.027-0.084 0.059-0.162 0.092-0.234 0.030-0.067 0.063-0.126 0.094-0.18 0.135-0.218 0.331-0.412 0.504-0.584l0.052-0.053c0.063-0.063 0.166-0.168 0.218-0.232-0.387-0.125-0.795-0.193-1.244-0.211-0.574-0.026-1.233 0.024-2.030 0.148l-0.008 0.008-0.053 0.002c-0.39 0.061-0.893 0.075-1.337 0.087-0.485 0.013-0.984 0.026-1.368 0.096-0.735 0.134-1.337 0.272-1.894 0.435-0.573 0.168-1.117 0.37-1.66 0.616-1.14 0.519-1.956 1.074-2.567 1.746-0.548 0.604-0.884 1.236-1.263 2.003l-0.015 0.024c-0.042 0.078-0.109 0.168-0.196 0.266-0.092 0.102-0.203 0.207-0.331 0.315-0.339 0.286-1.594 1.237-3.501 1.51-0.775 0.111-1.256 0.17-1.661 0.114-0.278-0.036-0.515-0.12-0.745-0.267 0.084 0.663 0.459 1.821 1.975 2.578 0.211 0.104 0.422 0.191 0.635 0.263 0.211 0.067 0.425 0.121 0.637 0.156 1.089 0.187 2.249-0.045 3.401-0.678l0.313-0.17 0.080 0.348c0.008 0.036 0.196 0.868 0.589 1.265 0.751 0.753 1.502 1.475 2.439 2.001 0.94 0.528 2.073 0.86 3.563 1.038l0.253 0.032-0.017 0.253c0 0.005-0.042 1.163-1.548 2.871-0.066 0.075-0.137 0.152-0.214 0.227-0.12 0.119-0.251 0.234-0.389 0.344-0.141 0.111-0.284 0.214-0.428 0.306-0.733 0.47-1.558 0.74-2.263 0.741v0c-0.393 0-0.78-0.039-1.083-0.321-0.247-0.23-0.417-0.602-0.566-1.245-0.119-0.506-0.235-0.773-0.418-0.95-0.197-0.191-0.514-0.317-1.061-0.42-0.066-0.014-0.129-0.020-0.189-0.024l-0.063-0.004c-0.036 0-0.071 0.002-0.106 0.006-0.274 0.019-0.449 0.117-0.525 0.2-0.092 0.23-0.519 1.13-1.631 1.327-0.187 0.142-0.296 0.271-0.352 0.416-0.042 0.104-0.057 0.234-0.063 0.36 0.352-0.032 0.661-0.008 0.959 0.088 0.475 0.148 0.924 0.463 1.452 1.020l0.088 0.091-0.391 0.372-0.087-0.091c-0.463-0.486-0.841-0.757-1.223-0.878-0.36-0.112-0.735-0.104-1.29 0.034-0.789 0.192-0.742 0.842-0.713 1.021 0.108 0.187 0.463 0.935-0.056 2.016-0.031 0.267 0.060 0.633 0.239 0.961 0.153 0.282 0.346 0.491 0.491 0.54l0.040 0.008c-0.012-0.003 0-0.012 0.016-0.022 0.014-0.065 0.029-0.222 0.041-0.36 0.054-0.602 0.136-1.506 0.904-2.096 0.1-0.077 0.212-0.146 0.34-0.206 0.123-0.059 0.252-0.106 0.388-0.145 0.71-0.199 1.624-0.142 2.329 0.149l0.118 0.047-0.205 0.498-0.117-0.047c-0.364-0.148-0.779-0.228-1.2-0.228-0.274 0-0.543 0.035-0.779 0.1-0.108 0.030-0.211 0.068-0.305 0.112-0.089 0.041-0.169 0.089-0.238 0.142-0.586 0.452-0.654 1.215-0.699 1.719-0.013 0.146-0.025 0.275-0.046 0.383 0.009-0.007 0.017-0.014 0.026-0.020 0.194-0.137 0.397-0.211 0.571-0.212 0.115 0 0.234 0.030 0.352 0.088 0.16 0.079 0.312 0.209 0.439 0.371 0.131 0.17 0.232 0.376 0.292 0.596 0.044 0.158 0.066 0.326 0.066 0.496 0 0.101-0.008 0.204-0.024 0.31-0.005 0.028-0.011 0.060-0.018 0.093-0.015 0.069-0.032 0.128-0.053 0.183-0.011 0.028-0.022 0.059-0.036 0.087 0.036 0.040 0.077 0.081 0.125 0.123 0.063 0.055 0.131 0.107 0.207 0.156l0.028 0.020c0.393 0.255 0.874 0.406 1.291 0.406v0.127l0.003-0.127c0.071-0.002 0.151-0.010 0.236-0.028z"></path>
<path d="M45.063 9.388c-0.065 0.005-0.128 0.013-0.189 0.022-0.073 0.011-0.144 0.028-0.21 0.047-0.061 0.019-0.119 0.042-0.172 0.071-0.245 0.129-0.364 0.358-0.364 0.693 0 0.084 0.008 0.166 0.024 0.244 0.010 0.051 0.022 0.098 0.038 0.143s0.036 0.086 0.057 0.124c0.088 0.158 0.22 0.257 0.394 0.292 0.083 0.016 0.187 0.028 0.312 0.036 0.133 0.011 0.282 0.016 0.439 0.020 0.137 0.003 0.28 0.004 0.429 0.004 0.737 0 1.617-0.036 2.012-0.070 0.049-0.004 0.094-0.022 0.137-0.053 0.047-0.035 0.093-0.084 0.134-0.148s0.081-0.143 0.11-0.226c0.065-0.179 0.089-0.352 0.088-0.455 0-0.071-0.009-0.144-0.026-0.22-0.032-0.131-0.088-0.253-0.162-0.352-0.073-0.098-0.164-0.169-0.261-0.206-0.059-0.022-0.119-0.032-0.181-0.032-0.343 0.004-0.84 0.012-1.334 0.022-0.58 0.014-1.007 0.028-1.275 0.045z"></path>
<path d="M15.533 63.684c0.677-0.514 0.554-1.39 0.466-1.75-0.426-0.092-0.776-0.017-1.031 0.187-0.15 0.122-0.263 0.289-0.318 0.47-0.002 0.005-0.003 0.011-0.005 0.017 0.593 0.267 0.81 0.731 0.889 1.076z"></path>
<path d="M7.383 62.077c0.011-0.031 0.020-0.067 0.028-0.104l0.011-0.057c0.013-0.080 0.020-0.156 0.020-0.232 0-0.121-0.016-0.24-0.047-0.354-0.042-0.15-0.111-0.292-0.199-0.407-0.075-0.099-0.165-0.177-0.251-0.218-0.055-0.026-0.091-0.032-0.112-0.032-0.061 0-0.158 0.043-0.264 0.115-0.094 0.066-0.191 0.155-0.279 0.261-0.095 0.114-0.174 0.239-0.234 0.37-0.091 0.197-0.137 0.399-0.135 0.602 0 0.196 0.036 0.35 0.080 0.463 0.262-0.198 0.717-0.426 1.382-0.407z"></path>
<path d="M50.332 15.543c0.134-0.397 0.195-0.842 0.195-1.405-0.002-1.112-0.682-1.935-1.318-2.336-0.144-0.092-0.296-0.167-0.448-0.224-0.149-0.057-0.3-0.093-0.443-0.109-0.053-0.006-0.104-0.009-0.151-0.010-0.075 0.040-0.174 0.081-0.29 0.092-0.404 0.034-1.302 0.071-2.047 0.071-0.156 0-0.308-0.002-0.451-0.005-0.175-0.004-0.334-0.010-0.467-0.021-0.147-0.011-0.272-0.024-0.367-0.043-0.159-0.030-0.303-0.090-0.428-0.178-0.064 0.011-0.121 0.022-0.179 0.034-0.078 0.018-0.154 0.041-0.229 0.067-0.413 0.145-0.797 0.407-1.080 0.739-0.315 0.37-0.508 0.774-0.624 1.31-0.112 0.511-0.158 1.142-0.156 2.107 0.003 0.593 0.145 1.204 0.426 1.815 0.298 0.651 0.761 1.322 1.375 1.993 0.707 0.775 1.105 1.28 1.371 1.745 0.298 0.525 0.433 1.008 0.433 1.571 0.002 0.595-0.211 1.094-0.404 1.419 0.35-0.042 0.662-0.133 0.934-0.269 0.134-0.070 0.263-0.152 0.377-0.245 0.669-0.543 0.739-1.287 0.745-1.432 0.029-0.567-0.011-1.063-0.12-1.514-0.088-0.372-0.223-0.72-0.423-1.091l-0.032-0.055c-0.069-0.127-0.145-0.25-0.223-0.37-0.127-0.195-0.255-0.377-0.378-0.55-0.398-0.561-0.773-1.091-0.775-1.593v-0.127h0.54v0.127c0 0.329 0.327 0.791 0.676 1.283 0.13 0.186 0.267 0.379 0.387 0.567 0.087 0.135 0.17 0.27 0.245 0.406 0.241 0.437 0.403 0.843 0.507 1.279 0.102 0.43 0.148 0.897 0.138 1.425 0.020-0.006 0.038-0.014 0.057-0.020 0.111-0.046 0.216-0.106 0.315-0.183 0.091-0.071 0.179-0.158 0.259-0.258 0.354-0.44 0.511-1.054 0.511-1.467 0-0.070-0.005-0.144-0.011-0.22-0.085-1.184-0.815-2.24-1.4-3.089-0.36-0.526-0.67-0.971-0.755-1.348l-0.028-0.124 0.528-0.118 0.026 0.123c0.065 0.28 0.359 0.708 0.674 1.16 0.494 0.716 1.102 1.599 1.37 2.617 0.665-0.641 0.546-1.69 0.474-2.284-0.117-0.251-0.478-1.002-0.791-1.368-0.057-0.068-0.119-0.131-0.178-0.195-0.33-0.346-0.643-0.673-0.863-1.837l-0.023-0.125 0.529-0.098 0.024 0.123c0.191 1.007 0.437 1.265 0.723 1.565 0.063 0.068 0.129 0.138 0.197 0.216 0.253 0.298 0.525 0.795 0.706 1.157 0.149-0.235 0.259-0.461 0.34-0.699z"></path>
<path d="M23.205 17.617c-0.013 0.003-0.046 0.011-0.113 0.035-0.070 0.024-0.155 0.061-0.256 0.104-0.453 0.197-1.24 0.598-2.103 1.072-0.577 0.317-1.2 0.522-2.012 0.667-0.925 0.165-2.142 0.252-3.719 0.267l-0.302 0.001-0.292-0.001c-0.040 0.535 0.018 0.947 0.157 1.11 0.075 0.088 0.138 0.175 0.2 0.259 0.122 0.165 0.223 0.304 0.352 0.401 0.022 0.017 0.050 0.034 0.087 0.050 0.040 0.020 0.088 0.039 0.142 0.057 0.17 0.059 0.367 0.096 0.536 0.104-0.108-0.249-0.171-0.5-0.198-0.778l-0.028-0.295h0.297c0.029 0 0.546-0.008 1.456 0.005 0.59 0.007 1.039-0.004 1.426-0.047 0.426-0.048 0.823-0.137 1.248-0.28 0.123-0.041 0.235-0.078 0.335-0.108 0.294-0.094 0.597-0.183 0.905-0.268s0.629-0.166 0.955-0.245c1.667-0.399 3.307-0.639 4.387-0.641 0.096 0 0.189 0.004 0.28 0.011 0.261 0.022 0.54 0.075 0.834 0.16-0.061-0.038-0.104-0.063-0.115-0.069l-0.081-0.047-0.038-0.084c-0.404-0.934-1.279-1.22-1.803-1.39-0.159-0.052-0.288-0.098-0.392-0.154l-0.925 0.046c-0.554 0.026-1.085 0.051-1.217 0.063h-0.002v-0.004z"></path>
<path d="M21.4 17.141c-0.117-0.020-0.221-0.036-0.309-0.047-0.133-0.017-0.244-0.027-0.318-0.027-0.232 0-0.597 0.032-0.935 0.065-0.178 0.142-0.387 0.278-0.624 0.408s-0.51 0.257-0.812 0.375c-1.616 0.633-3.789 0.933-5.983 0.817 0.007 0.346 0.076 1.051 0.485 1.47 0.241 0.247 0.579 0.365 0.988 0.341-0.077-0.519 0.003-1.085 0.004-1.091l0.028-0.232h0.239c0.024 0 0.268 0.007 0.833 0.002 1.541-0.014 2.728-0.099 3.629-0.261 0.756-0.135 1.327-0.323 1.849-0.61 0.379-0.207 1.265-0.685 1.928-0.993-0.2-0.056-0.423-0.108-0.654-0.154-0.113-0.022-0.232-0.043-0.348-0.063z"></path>
<path d="M19.943 14.889c0.105 0.064 0.185 0.108 0.264 0.139 0.070 0.028 0.147 0.049 0.272 0.073-0.049-0.154-0.075-0.321-0.076-0.507l-0.001-0.121c-0.001-0.139-0.002-0.242-0.005-0.323-0.127 0.007-0.167 0.019-0.178 0.025l-0.032 0.066h0.001l-0.007 0.015 0.001 0.001c-0.038 0.079-0.092 0.196-0.147 0.337-0.035 0.088-0.065 0.189-0.092 0.296z"></path>
<path d="M36.37 26.059h-0.050c-0.081 0-0.161-0.002-0.24-0.005-0.232-0.010-0.464-0.030-0.69-0.062-0.231-0.034-0.464-0.081-0.695-0.142-1.281-0.342-2.282-1.063-2.972-2.146-0.017-0.028-0.043-0.059-0.075-0.092l-0.028-0.030c-0.080-0.081-0.192-0.17-0.334-0.265-0.161-0.111-0.351-0.224-0.567-0.335-1-0.525-2.551-1.056-3.579-1.056-0.901 0.002-1.876 0.167-2.102 0.208-0.849 0.396-1.388 0.788-1.694 1.232-0.277 0.402-0.373 0.854-0.435 1.45-0.059 0.57 0 0.957 0.069 1.194 0.67-0.532 2.408-1.76 4.096-1.763 0.964 0 2.087 0.418 3.087 1.147 0.233 0.17 0.472 0.365 0.708 0.579 0.238 0.221 0.474 0.463 0.698 0.718 0.109 0.127 0.217 0.256 0.319 0.388 0.555 0.46 1.064 0.769 1.583 0.951 0.439 0.156 0.894 0.226 1.477 0.226v0.126l0.015-0.126c1.721-0.005 2.526-1.502 2.844-2.343-0.028 0.006-0.056 0.012-0.086 0.017-0.429 0.083-0.909 0.129-1.351 0.13z"></path>
<path d="M15.941 26.382l0.154 0.002c0.104 0 0.211-0.002 0.319-0.007 0.151-0.006 0.306-0.017 0.463-0.034 0.872-0.087 1.74-0.319 2.584-0.689 0.241-0.104 0.474-0.213 0.703-0.319l0.079-0.036c0.9-0.416 1.593-0.718 2.16-0.764 0.072-0.56 0.191-1.031 0.499-1.475 0.231-0.334 0.558-0.633 1.017-0.926-0.484 0.014-1.071 0.053-1.598 0.156-0.746 0.149-1.169 0.388-1.578 0.618-0.414 0.233-0.805 0.455-1.448 0.556-0.101 0.111-0.276 0.227-0.533 0.349-0.209 0.1-0.481 0.209-0.828 0.334-1.882 0.676-2.708 0.796-3.311 0.883l-0.17 0.025c0.009 0.062 0.020 0.115 0.036 0.164 0.032 0.104 0.078 0.207 0.133 0.307 0.281 0.494 0.823 0.846 1.318 0.855z"></path>
<path d="M12.493 20.706c-0.087 0.034-0.186 0.078-0.29 0.127-0.534 0.257-1.273 0.707-1.615 0.985-0.33 0.269-0.714 0.468-1.14 0.594-0.315 0.094-0.651 0.149-1.058 0.174-0.184 0.011-0.429 0.017-0.728 0.017-0.087 0-0.169-0.001-0.242-0.001 0.084 0.406 0.376 1.123 1.373 1.492 0.247-0.061 0.449-0.117 0.628-0.175l0.040-0.014c0.236-0.077 0.573-0.259 0.931-0.451 0.456-0.245 0.944-0.499 1.444-0.696l0.028-0.112 0.135 0.024c0.119-0.085 0.254-0.171 0.405-0.257 0.189-0.107 0.407-0.22 0.645-0.331 0.227-0.105 0.466-0.208 0.691-0.295 0.25-0.096 0.479-0.171 0.676-0.223-0.025-0.033-0.049-0.067-0.074-0.101-0.060-0.081-0.121-0.165-0.188-0.244-0.034-0.040-0.065-0.085-0.094-0.139-0.627 0.071-1.124-0.067-1.488-0.402-0.024 0.009-0.049 0.015-0.079 0.027z"></path>
<path d="M23.872 42.578l0.282 0.021c0.153 0.012 0.295 0.020 0.437 0.028-0.022-0.067-0.047-0.136-0.071-0.201-0.154-0.417-0.31-0.844-0.311-1.403-0.001-0.57 0.127-1.256 0.251-1.923 0.098-0.526 0.197-1.057 0.229-1.502 0.007-0.1 0.011-0.193 0.011-0.28-0.001-0.307-0.229-0.962-0.608-1.526-0.102-0.15-0.213-0.292-0.331-0.421-0.127-0.138-0.259-0.257-0.388-0.35-0.142-0.105-0.288-0.187-0.437-0.245l-0.091-0.035-0.502 0.614c0.474 0.29 1.301 0.94 1.304 1.951 0 0.218-0.173 0.408-0.4 0.635l-0.049 0.049c-0.154 0.153-0.329 0.326-0.43 0.49-0.024 0.035-0.045 0.075-0.064 0.118-0.024 0.055-0.048 0.114-0.071 0.183-0.022 0.067-0.043 0.141-0.064 0.22-0.092 0.364-0.146 0.819-0.145 1.248 0 0.076 0.008 0.159 0.024 0.25 0.018 0.102 0.045 0.204 0.084 0.315 0.038 0.105 0.086 0.218 0.143 0.332 0.257 0.51 0.682 1.019 1.196 1.431z"></path>
<path d="M10.185 27.758c0.447 0.277 1.062 0.419 1.882 0.432l0.173-0.075c1.018-0.438 2.16-0.929 2.956-1.372-0.432-0.195-0.81-0.536-1.043-0.945-0.075-0.133-0.137-0.274-0.181-0.418-0.025-0.078-0.040-0.159-0.051-0.239-0.312 0.045-0.47 0.064-0.548 0.072-0.686 0.407-1.486 0.864-2.244 1.19-0.62 0.267-1.178 0.423-1.698 0.479 0.185 0.387 0.432 0.676 0.754 0.877z"></path>
<path d="M34.774 14.381c-0.44-0.361-0.554-0.855-0.672-1.374-0.049-0.214-0.106-0.458-0.189-0.682-0.154-0.412-0.321-0.697-0.554-0.961-0.226-0.255-0.521-0.497-1.019-0.838-0.62-0.423-1.287-0.585-1.738-0.646-0.112-0.015-0.224-0.026-0.332-0.032-0.018-0.001-0.036-0.002-0.055-0.003 0.006 0.119 0.012 0.241 0.019 0.367 0.022 0.606 0.047 1.233 0.256 1.486 0.131 0.156 0.296 0.274 0.506 0.352 0.232 0.088 0.519 0.136 0.878 0.146l0.342 0.011-0.088 0.329c-0.017 0.060-0.158 0.524-0.537 0.973 0.571 0.236 1.011 0.515 1.375 0.869 0.466 0.453 0.856 1.052 1.221 1.882 0.047 0.106 0.098 0.198 0.149 0.292l0.003 0.007c1.836-0.16 2.227-1.244 2.309-1.755-0.191 0.018-0.384 0.031-0.565 0.031-0.533-0.001-0.925-0.135-1.307-0.452z"></path>
<path d="M3.214 18.347v0c0.245 0 0.457-0.042 0.596-0.079 0.042-0.744-0.212-0.947-0.35-1.002-0.455 0.317-1.181 0.363-1.48 0.369l-0.101 0.001c-0.011 0-0.021 0-0.031 0 0.319 0.472 0.777 0.711 1.367 0.711z"></path>
<path d="M20.164 11.647c-0.097 0-0.191-0.004-0.285-0.013 0 0.059 0.007 0.131 0.029 0.218 0.049 0.189 0.166 0.453 0.354 0.804 0.074-0.019 0.125-0.040 0.167-0.063l0.006-0.079c0.023-0.351 0.047-0.635 0.119-0.889-0.107 0.012-0.226 0.022-0.39 0.022z"></path>
<path d="M3.577 27.759c0.211 0.171 0.385 0.364 0.56 0.619 0.253-0.001 0.678-0.087 0.823-0.615-0.197-0.199-0.705-0.643-1.327-0.643-0.255 0-0.505 0.076-0.744 0.227 0.263 0.116 0.488 0.253 0.687 0.412z"></path>
</symbol>
</defs>
</svg>
